#!OML:ASF E:\Steps\Project 1\Capture day 1\Session 2\Subject.ASF
:FULLY-SPECIFIED
:DEGREES
374
root 3.78402 17.0993 16.1422 -153.828 -2.71224 176.272
lowerback -30.2555 -2.6229 -8.52417
upperback -2.03755 -1.32608 -0.48326
thorax 13.6778 -1.43483 3.47576
lowerneck -0.11994 -2.41851 0.00986289
upperneck 4.52885 -3.41624 2.10096
head 1.45601 -1.7124 0.601679
rclavicle -6.65929e-015 2.46493e-014
rhumerus -35.9281 -16.492 -78.7158
rradius 33.12
rwrist -5.55388
rhand -3.2384 -55.2874
rfingers 7.12502
rthumb 22.4851 -83.9984
lclavicle -6.65929e-015 2.46493e-014
lhumerus -31.8165 5.64998 81.143
lradius 21.3291
lwrist -5.53493
lhand -20.2092 -12.4775
lfingers 7.12502
lthumb 6.13786 17.4136
rfemur -20.7595 3.96346 19.0398
rtibia 5.22387
rfoot -18.6008 -4.55542
rtoes -16.2863
lfemur -22.5215 -7.30201 -23.8021
ltibia 6.74313
lfoot -5.96508 -4.92248
ltoes -21.9927
375
root 3.78025 17.0975 16.1353 -153.893 -2.70238 176.301
lowerback -30.2825 -2.58616 -8.46583
upperback -2.02258 -1.28952 -0.509911
thorax 13.7018 -1.41514 3.42936
lowerneck -0.113226 -2.35534 0.235099
upperneck 4.63347 -3.33006 1.86856
head 1.47773 -1.66979 0.492822
rclavicle 5.41688e-015 -3.65764e-014
rhumerus -36.022 -16.4656 -78.7543
rradius 33.1462
rwrist -5.54687
rhand -3.20877 -54.9656
rfingers 7.12502
rthumb 22.5136 -83.6731
lclavicle 5.41688e-015 -3.65764e-014
lhumerus -31.8349 5.77263 81.0171
lradius 21.3335
lwrist -5.65695
lhand -19.9183 -12.5959
lfingers 7.12502
lthumb 6.41865 17.2868
rfemur -20.6493 4.18859 19.0184
rtibia 5.19768
rfoot -18.6349 -4.70644
rtoes -15.9606
lfemur -22.3925 -7.43767 -23.7757
ltibia 6.70533
lfoot -6.11557 -4.68615
ltoes -23.0162
376
root 3.77579 17.0961 16.129 -153.955 -2.66518 176.332
lowerback -30.331 -2.57387 -8.42771
upperback -1.98855 -1.27572 -0.507749
thorax 13.7614 -1.40784 3.41552
lowerneck -0.101092 -2.34226 0.231373
upperneck 4.56039 -3.30701 1.84478
head 1.45175 -1.6582 0.486969
rclavicle -2.88238e-015 1.82882e-014
rhumerus -36.0405 -16.3681 -78.7871
rradius 33.1253
rwrist -5.63559
rhand -3.10479 -54.5714
rfingers 7.12502
rthumb 22.6134 -83.2668
lclavicle -2.88238e-015 1.82882e-014
lhumerus -31.737 6.06656 80.9114
lradius 21.2236
lwrist -5.72667
lhand -19.7955 -12.6616
lfingers 7.12502
lthumb 6.53719 17.2175
rfemur -20.5568 4.20368 19.0528
rtibia 5.15511
rfoot -18.6047 -4.76791
rtoes -16.3285
lfemur -22.3005 -7.59339 -23.7474
ltibia 6.72254
lfoot -6.2834 -4.46487
ltoes -23.1359
377
root 3.77302 17.0952 16.1256 -153.99 -2.63247 176.301
lowerback -30.3734 -2.58658 -8.48169
upperback -1.94888 -1.26154 -0.52365
thorax 13.8239 -1.40579 3.43126
lowerneck -0.159047 -2.32618 0.207754
upperneck 4.45087 -3.2821 1.91956
head 1.42877 -1.64367 0.51429
rclavicle 2.98177e-016 -1.47101e-014
rhumerus -35.9977 -16.2757 -78.876
rradius 33.0955
rwrist -5.68264
rhand -3.16397 -54.5024
rfingers 7.12502
rthumb 22.5566 -83.2047
lclavicle 2.98177e-016 -1.47101e-014
lhumerus -31.6581 6.0068 80.9184
lradius 21.2756
lwrist -5.47026
lhand -20.1644 -12.328
lfingers 7.12502
lthumb 6.18108 17.5619
rfemur -20.5356 4.23673 19.016
rtibia 5.21907
rfoot -18.6415 -4.8765
rtoes -16.5749
lfemur -22.2751 -7.64961 -23.8023
ltibia 6.80052
lfoot -6.42428 -4.30417
ltoes -23.1454
378
root 3.77121 17.096 16.1245 -154.004 -2.60951 176.336
lowerback -30.3951 -2.56973 -8.46421
upperback -1.92336 -1.23618 -0.544867
thorax 13.8595 -1.39359 3.40831
lowerneck -0.213619 -2.33171 0.23798
upperneck 4.26213 -3.28101 1.95718
head 1.37856 -1.64043 0.521283
rclavicle 1.36167e-014 -7.55382e-015
rhumerus -35.986 -16.2188 -78.9741
rradius 33.1192
rwrist -5.64152
rhand -3.1802 -54.7416
rfingers 7.12502
rthumb 22.541 -83.4458
lclavicle 1.36167e-014 -7.55382e-015
lhumerus -31.6694 5.70182 80.9512
lradius 21.4884
lwrist -5.11292
lhand -20.4967 -11.8265
lfingers 7.12502
lthumb 5.86028 18.0724
rfemur -20.5597 4.38635 19.0144
rtibia 5.30964
rfoot -18.6985 -4.95934
rtoes -15.9378
lfemur -22.2454 -7.6594 -23.7683
ltibia 6.77322
lfoot -6.43705 -4.21955
ltoes -22.9666
379
root 3.76968 17.097 16.1222 -154.024 -2.61964 176.334
lowerback -30.3936 -2.57138 -8.47543
upperback -1.90613 -1.22936 -0.557826
thorax 13.8777 -1.3909 3.40296
lowerneck -0.270447 -2.36389 0.239718
upperneck 4.11467 -3.31605 1.97133
head 1.34229 -1.65613 0.525034
rclavicle 6.36111e-015 0
rhumerus -35.9697 -16.2023 -78.9782
rradius 33.0875
rwrist -5.60785
rhand -2.98106 -55.1605
rfingers 7.12502
rthumb 22.7321 -83.8414
lclavicle 6.36111e-015 0
lhumerus -31.702 5.39832 81.0072
lradius 21.6648
lwrist -4.73042
lhand -20.5348 -11.4498
lfingers 7.12502
lthumb 5.82346 18.4501
rfemur -20.5341 4.41443 18.9906
rtibia 5.3271
rfoot -18.7135 -4.95096
rtoes -15.3891
lfemur -22.1965 -7.76214 -23.7514
ltibia 6.72272
lfoot -6.43477 -4.1529
ltoes -23.3477
380
root 3.76832 17.0967 16.1199 -154.071 -2.60636 176.248
lowerback -30.3912 -2.60094 -8.59728
upperback -1.87186 -1.21958 -0.559795
thorax 13.9152 -1.39389 3.46974
lowerneck -0.326645 -2.35019 0.204579
upperneck 4.05108 -3.29004 1.92234
head 1.33122 -1.64275 0.51578
rclavicle 6.16232e-015 1.70955e-014
rhumerus -35.9462 -16.1596 -78.926
rradius 33.0169
rwrist -5.63567
rhand -2.85152 -55.3587
rfingers 7.12502
rthumb 22.8565 -84.0243
lclavicle 6.16232e-015 1.70955e-014
lhumerus -31.6777 5.21429 81.0926
lradius 21.7024
lwrist -4.49981
lhand -20.6159 -11.3863
lfingers 7.12502
lthumb 5.74519 18.5158
rfemur -20.4662 4.3969 18.8846
rtibia 5.32102
rfoot -18.7404 -4.94458
rtoes -15.6019
lfemur -22.1218 -7.84213 -23.8631
ltibia 6.7179
lfoot -6.40496 -4.14584
ltoes -24.2712
381
root 3.76609 17.0955 16.1165 -154.111 -2.57194 176.235
lowerback -30.4268 -2.55174 -8.63233
upperback -1.84909 -1.13124 -0.607061
thorax 13.9451 -1.35676 3.47108
lowerneck -0.349125 -2.32699 0.295635
upperneck 4.09331 -3.26076 1.8763
head 1.34549 -1.62744 0.486324
rclavicle -8.79622e-015 2.98177e-014
rhumerus -36.038 -16.338 -78.86
rradius 32.909
rwrist -5.58773
rhand -2.91582 -55.0191
rfingers 7.12502
rthumb 22.7948 -83.6923
lclavicle -8.79622e-015 2.98177e-014
lhumerus -31.6392 5.08288 81.0652
lradius 21.6635
lwrist -4.4614
lhand -20.5682 -11.6092
lfingers 7.12502
lthumb 5.79127 18.2916
rfemur -20.4014 4.34819 18.8779
rtibia 5.30913
rfoot -18.7384 -4.85462
rtoes -15.587
lfemur -22.029 -7.8522 -23.9101
ltibia 6.67789
lfoot -6.3118 -4.19894
ltoes -23.8678
382
root 3.76415 17.095 16.1129 -154.127 -2.56385 176.237
lowerback -30.4725 -2.48201 -8.63811
upperback -1.83809 -1.02481 -0.684119
thorax 13.9627 -1.30972 3.43115
lowerneck -0.412502 -2.40258 0.483301
upperneck 4.16249 -3.3681 1.84541
head 1.37505 -1.67876 0.443003
rclavicle -2.17669e-014 -1.19271e-014
rhumerus -36.0912 -16.6948 -78.7584
rradius 32.6694
rwrist -5.47338
rhand -2.98854 -54.4724
rfingers 7.12502
rthumb 22.725 -83.1541
lclavicle -2.17669e-014 -1.19271e-014
lhumerus -31.6027 4.75174 81.0611
lradius 21.6792
lwrist -4.08763
lhand -20.6407 -11.5558
lfingers 7.12502
lthumb 5.72128 18.3469
rfemur -20.3514 4.33713 18.8792
rtibia 5.29803
rfoot -18.7497 -4.8049
rtoes -15.24
lfemur -21.9935 -7.76972 -23.9449
ltibia 6.68514
lfoot -6.34078 -4.33904
ltoes -22.7667
383
root 3.7635 17.0961 16.1118 -154.143 -2.59209 176.191
lowerback -30.4465 -2.50217 -8.72852
upperback -1.84563 -1.02301 -0.69861
thorax 13.9412 -1.31373 3.46475
lowerneck -0.524546 -2.52263 0.591868
upperneck 4.2434 -3.53105 1.77435
head 1.41763 -1.7584 0.398828
rclavicle 9.49197e-015 1.11319e-014
rhumerus -36.1257 -16.7881 -78.6758
rradius 32.4904
rwrist -5.35836
rhand -2.9283 -54.2269
rfingers 7.12502
rthumb 22.7828 -82.9016
lclavicle 9.49197e-015 1.11319e-014
lhumerus -31.6162 4.64645 81.0342
lradius 21.6927
lwrist -3.9762
lhand -20.8712 -11.4314
lfingers 7.12502
lthumb 5.4987 18.4773
rfemur -20.3031 4.41021 18.8038
rtibia 5.28121
rfoot -18.8251 -4.86457
rtoes -15.1123
lfemur -21.9993 -7.70522 -24.0117
ltibia 6.73838
lfoot -6.35205 -4.49788
ltoes -22.2075
